<?xml version="1.0" encoding="UTF-8"?>
<svg xmlns="http://www.w3.org/2000/svg" xmlns:xlink="http://www.w3.org/1999/xlink" width="36" height="36" viewBox="0 0 36 36" version="1.1">
<g id="surface1">
<path style=" stroke:none;fill-rule:nonzero;fill:rgb(0%,0%,0%);fill-opacity:1;" d="M 6.960938 4.753906 C 5.90625 5.042969 5.148438 5.898438 4.992188 6.96875 C 4.902344 7.59375 4.90625 13.703125 5 14.273438 C 5.140625 15.160156 5.714844 15.917969 6.523438 16.296875 L 6.925781 16.488281 L 15.152344 16.488281 L 15.554688 16.296875 C 16.074219 16.058594 16.621094 15.511719 16.859375 14.992188 L 17.050781 14.589844 L 17.050781 6.574219 L 16.824219 6.144531 C 16.542969 5.605469 15.945312 5.054688 15.414062 4.835938 C 15.011719 4.675781 15.011719 4.675781 11.179688 4.660156 C 7.964844 4.648438 7.285156 4.660156 6.960938 4.753906 Z M 14.695312 6.785156 C 14.808594 6.839844 14.933594 6.953125 14.976562 7.023438 C 15.019531 7.117188 15.046875 8.386719 15.046875 10.636719 L 15.046875 14.113281 L 14.863281 14.300781 L 14.675781 14.484375 L 11.046875 14.484375 C 7.003906 14.484375 7.171875 14.503906 7.03125 14.007812 C 6.988281 13.84375 6.960938 12.53125 6.960938 10.546875 C 6.960938 7.644531 6.976562 7.328125 7.085938 7.101562 C 7.152344 6.96875 7.285156 6.820312 7.382812 6.769531 C 7.515625 6.699219 8.394531 6.679688 11.023438 6.679688 C 13.976562 6.679688 14.519531 6.695312 14.695312 6.785156 Z M 14.695312 6.785156 "/>
<path style=" stroke:none;fill-rule:nonzero;fill:rgb(0%,0%,0%);fill-opacity:1;" d="M 20.144531 4.78125 C 19.421875 5.140625 19.398438 6.207031 20.109375 6.574219 C 20.410156 6.730469 30.816406 6.730469 31.183594 6.582031 C 31.710938 6.355469 31.902344 5.511719 31.519531 5.054688 C 31.15625 4.625 31.367188 4.640625 25.648438 4.640625 C 20.574219 4.640625 20.417969 4.648438 20.144531 4.78125 Z M 20.144531 4.78125 "/>
<path style=" stroke:none;fill-rule:nonzero;fill:rgb(0%,0%,0%);fill-opacity:1;" d="M 20.285156 9.640625 C 19.835938 9.78125 19.601562 10.117188 19.601562 10.617188 C 19.601562 11.023438 19.730469 11.265625 20.058594 11.460938 C 20.277344 11.59375 20.453125 11.601562 25.664062 11.601562 C 30.875 11.601562 31.050781 11.59375 31.269531 11.460938 C 31.597656 11.265625 31.730469 10.953125 31.695312 10.496094 C 31.660156 10.054688 31.414062 9.746094 31.015625 9.632812 C 30.691406 9.542969 20.582031 9.546875 20.285156 9.640625 Z M 20.285156 9.640625 "/>
<path style=" stroke:none;fill-rule:nonzero;fill:rgb(0%,0%,0%);fill-opacity:1;" d="M 20.320312 14.554688 C 20.019531 14.625 19.625 15.046875 19.601562 15.308594 C 19.574219 15.890625 19.6875 16.15625 20.058594 16.382812 C 20.277344 16.515625 20.453125 16.523438 25.664062 16.523438 C 30.875 16.523438 31.050781 16.515625 31.269531 16.382812 C 31.871094 16.015625 31.859375 15.046875 31.238281 14.644531 C 31.0625 14.527344 30.734375 14.519531 25.804688 14.503906 C 22.921875 14.5 20.453125 14.519531 20.320312 14.554688 Z M 20.320312 14.554688 "/>
<path style=" stroke:none;fill-rule:nonzero;fill:rgb(0%,0%,0%);fill-opacity:1;" d="M 5.433594 19.617188 C 5.105469 19.8125 4.976562 20.054688 4.976562 20.46875 C 4.976562 20.855469 5.097656 21.078125 5.441406 21.332031 C 5.632812 21.480469 5.6875 21.480469 11.03125 21.480469 C 16.109375 21.480469 16.433594 21.472656 16.613281 21.355469 C 17.234375 20.953125 17.246094 19.984375 16.644531 19.617188 C 16.425781 19.484375 16.25 19.476562 11.039062 19.476562 C 5.828125 19.476562 5.652344 19.484375 5.433594 19.617188 Z M 5.433594 19.617188 "/>
<path style=" stroke:none;fill-rule:nonzero;fill:rgb(0%,0%,0%);fill-opacity:1;" d="M 21.296875 19.636719 C 20.609375 19.925781 20.1875 20.3125 19.863281 20.953125 C 19.566406 21.535156 19.53125 22.027344 19.5625 25.75 C 19.582031 29.109375 19.589844 29.230469 19.738281 29.585938 C 20.023438 30.304688 20.59375 30.875 21.320312 31.167969 C 21.683594 31.324219 21.746094 31.324219 25.664062 31.324219 L 29.636719 31.324219 L 30.039062 31.164062 C 30.570312 30.945312 31.167969 30.394531 31.449219 29.855469 L 31.675781 29.425781 L 31.675781 21.410156 L 31.492188 21.023438 C 31.21875 20.445312 30.796875 20.011719 30.25 19.742188 L 29.777344 19.511719 L 25.734375 19.496094 L 21.691406 19.476562 Z M 29.488281 21.699219 L 29.671875 21.886719 L 29.671875 25.363281 C 29.671875 27.613281 29.644531 28.882812 29.601562 28.976562 C 29.417969 29.3125 29.355469 29.320312 25.648438 29.320312 C 23.019531 29.320312 22.140625 29.300781 22.007812 29.230469 C 21.910156 29.179688 21.777344 29.03125 21.710938 28.898438 C 21.601562 28.671875 21.585938 28.355469 21.585938 25.398438 C 21.585938 21.957031 21.601562 21.777344 21.917969 21.59375 C 22 21.542969 23.222656 21.523438 25.671875 21.515625 L 29.300781 21.515625 Z M 29.488281 21.699219 "/>
<path style=" stroke:none;fill-rule:nonzero;fill:rgb(0%,0%,0%);fill-opacity:1;" d="M 5.433594 24.539062 C 5.105469 24.734375 4.976562 24.976562 4.976562 25.390625 C 4.976562 25.777344 5.097656 26 5.441406 26.253906 C 5.632812 26.402344 5.710938 26.402344 10.871094 26.421875 C 14.238281 26.4375 16.199219 26.417969 16.367188 26.367188 C 16.785156 26.261719 17.03125 25.953125 17.070312 25.503906 C 17.105469 25.046875 16.972656 24.734375 16.644531 24.539062 C 16.425781 24.40625 16.25 24.398438 11.039062 24.398438 C 5.828125 24.398438 5.652344 24.40625 5.433594 24.539062 Z M 5.433594 24.539062 "/>
<path style=" stroke:none;fill-rule:nonzero;fill:rgb(0%,0%,0%);fill-opacity:1;" d="M 5.449219 29.453125 C 5.125 29.644531 4.976562 29.925781 4.976562 30.304688 C 4.976562 30.742188 5.152344 31.042969 5.519531 31.21875 C 5.800781 31.351562 5.96875 31.359375 11.023438 31.359375 C 16.742188 31.359375 16.53125 31.375 16.894531 30.945312 C 17.140625 30.65625 17.164062 30.113281 16.945312 29.757812 C 16.671875 29.304688 16.859375 29.320312 10.988281 29.320312 C 5.921875 29.320312 5.652344 29.328125 5.449219 29.453125 Z M 5.449219 29.453125 "/>
</g>
</svg>
