<!-- Generated by IcoMoon.io -->
<svg version="1.1" xmlns="http://www.w3.org/2000/svg" width="32" height="32" viewBox="0 0 32 32">
<title>post-grid-30</title>
<path d="M6.188 4.225c-0.938 0.258-1.612 1.017-1.75 1.967-0.079 0.558-0.075 5.992 0.004 6.496 0.125 0.787 0.642 1.463 1.358 1.8l0.358 0.171h7.308l0.358-0.171c0.463-0.213 0.95-0.7 1.162-1.162l0.171-0.358v-7.125l-0.2-0.379c-0.25-0.479-0.783-0.971-1.258-1.163-0.358-0.142-0.358-0.142-3.763-0.158-2.854-0.008-3.463 0-3.75 0.083zM13.063 6.033c0.1 0.050 0.213 0.15 0.25 0.208 0.037 0.083 0.063 1.217 0.063 3.217v3.083l-0.162 0.171-0.171 0.162h-3.225c-3.592 0-3.442 0.017-3.567-0.425-0.037-0.142-0.063-1.313-0.063-3.075 0-2.583 0.013-2.862 0.112-3.063 0.058-0.121 0.175-0.25 0.263-0.296 0.121-0.058 0.9-0.079 3.237-0.079 2.625 0 3.108 0.013 3.262 0.096z"></path>
<path d="M17.908 4.25c-0.646 0.317-0.667 1.267-0.033 1.592 0.267 0.142 9.517 0.142 9.842 0.008 0.471-0.2 0.642-0.95 0.3-1.358-0.325-0.379-0.133-0.367-5.217-0.367-4.512 0-4.65 0.008-4.892 0.125z"></path>
<path d="M18.033 8.567c-0.4 0.125-0.608 0.425-0.608 0.871 0 0.363 0.113 0.575 0.408 0.75 0.192 0.121 0.35 0.125 4.979 0.125s4.788-0.004 4.979-0.125c0.296-0.175 0.417-0.45 0.383-0.854-0.033-0.396-0.25-0.671-0.608-0.771-0.283-0.079-9.275-0.075-9.533 0.004z"></path>
<path d="M18.063 12.938c-0.271 0.063-0.621 0.438-0.637 0.671-0.025 0.517 0.075 0.754 0.408 0.954 0.192 0.121 0.35 0.125 4.979 0.125s4.788-0.004 4.979-0.125c0.542-0.325 0.525-1.188-0.025-1.546-0.154-0.104-0.45-0.108-4.829-0.125-2.563-0.004-4.754 0.017-4.875 0.046z"></path>
<path d="M4.833 17.438c-0.296 0.175-0.408 0.387-0.408 0.754 0 0.346 0.108 0.546 0.412 0.771 0.171 0.129 0.221 0.129 4.971 0.129 4.508 0 4.8-0.004 4.958-0.108 0.55-0.358 0.567-1.221 0.025-1.546-0.192-0.121-0.35-0.125-4.979-0.125s-4.787 0.004-4.979 0.125z"></path>
<path d="M18.933 17.458c-0.617 0.254-0.992 0.6-1.275 1.167-0.267 0.517-0.296 0.958-0.271 4.262 0.021 2.988 0.025 3.096 0.154 3.413 0.258 0.637 0.767 1.142 1.408 1.408 0.325 0.133 0.383 0.133 3.863 0.133h3.529l0.358-0.142c0.475-0.192 1.008-0.683 1.258-1.163l0.2-0.379v-7.125l-0.167-0.346c-0.242-0.512-0.617-0.9-1.104-1.137l-0.421-0.208-3.592-0.008-3.592-0.021zM26.212 19.288l0.163 0.171v3.083c0 2-0.025 3.133-0.063 3.217-0.163 0.3-0.221 0.304-3.512 0.304-2.337 0-3.117-0.021-3.238-0.079-0.087-0.046-0.204-0.175-0.262-0.296-0.1-0.2-0.113-0.479-0.113-3.113 0-3.058 0.012-3.217 0.296-3.383 0.075-0.042 1.158-0.058 3.333-0.067h3.225z"></path>
<path d="M4.833 21.813c-0.296 0.175-0.408 0.387-0.408 0.754 0 0.346 0.108 0.546 0.412 0.771 0.171 0.129 0.237 0.129 4.825 0.15 2.996 0.012 4.737-0.004 4.888-0.050 0.367-0.096 0.588-0.371 0.625-0.771 0.033-0.404-0.088-0.679-0.383-0.854-0.192-0.121-0.35-0.125-4.979-0.125s-4.787 0.004-4.979 0.125z"></path>
<path d="M4.842 26.183c-0.283 0.167-0.417 0.417-0.417 0.754 0 0.387 0.158 0.654 0.483 0.813 0.25 0.117 0.4 0.125 4.892 0.125 5.083 0 4.892 0.012 5.217-0.367 0.221-0.258 0.242-0.742 0.046-1.058-0.246-0.4-0.075-0.387-5.296-0.387-4.504 0-4.742 0.004-4.925 0.121z"></path>
</svg>
