<svg xmlns="http://www.w3.org/2000/svg" version="1.1" width="20" height="20" viewBox="0 0 32 32 ">
<title>3-1</title>
<path d="M6.188 4.225c-0.938 0.256-1.612 1.019-1.75 1.969-0.081 0.556-0.075 5.987 0.006 6.494 0.125 0.787 0.638 1.463 1.356 1.8l0.356 0.169h7.313l0.356-0.169c0.463-0.213 0.95-0.7 1.162-1.162l0.169-0.356v-7.125l-0.2-0.381c-0.25-0.481-0.781-0.969-1.256-1.162-0.356-0.144-0.356-0.144-3.762-0.156-2.856-0.013-3.463 0-3.75 0.081zM13.063 6.031c0.1 0.050 0.213 0.15 0.25 0.213 0.037 0.081 0.063 1.213 0.063 3.213v3.088l-0.162 0.169-0.169 0.162h-3.225c-3.594 0-3.444 0.019-3.569-0.425-0.037-0.144-0.063-1.313-0.063-3.075 0-2.581 0.013-2.862 0.112-3.063 0.056-0.119 0.175-0.25 0.263-0.294 0.119-0.063 0.9-0.081 3.237-0.081 2.625 0 3.106 0.013 3.262 0.094z"/>
<path d="M17.906 4.25c-0.644 0.319-0.663 1.269-0.031 1.594 0.269 0.138 9.519 0.138 9.844 0.006 0.469-0.2 0.637-0.95 0.3-1.356-0.325-0.381-0.137-0.369-5.219-0.369-4.512 0-4.65 0.006-4.894 0.125z"/>
<path d="M18.031 8.569c-0.4 0.125-0.606 0.425-0.606 0.869 0 0.363 0.113 0.575 0.406 0.75 0.194 0.119 0.35 0.125 4.981 0.125s4.788-0.006 4.981-0.125c0.294-0.175 0.413-0.45 0.381-0.856-0.031-0.394-0.25-0.669-0.606-0.769-0.288-0.081-9.275-0.075-9.538 0.006z"/>
<path d="M18.063 12.938c-0.269 0.063-0.619 0.438-0.637 0.669-0.025 0.519 0.075 0.756 0.406 0.956 0.194 0.119 0.35 0.125 4.981 0.125s4.788-0.006 4.981-0.125c0.538-0.325 0.525-1.188-0.025-1.544-0.156-0.106-0.45-0.113-4.831-0.125-2.563-0.006-4.756 0.012-4.875 0.044z"/>
<path d="M4.831 17.438c-0.294 0.175-0.406 0.387-0.406 0.756 0 0.344 0.106 0.544 0.412 0.769 0.169 0.131 0.219 0.131 4.969 0.131 4.512 0 4.8-0.006 4.963-0.113 0.55-0.356 0.563-1.219 0.025-1.544-0.194-0.119-0.35-0.125-4.981-0.125s-4.787 0.006-4.981 0.125z"/>
<path d="M18.931 17.456c-0.613 0.256-0.988 0.6-1.275 1.169-0.262 0.519-0.294 0.956-0.269 4.262 0.019 2.988 0.025 3.094 0.156 3.413 0.256 0.637 0.762 1.144 1.406 1.406 0.325 0.137 0.381 0.137 3.863 0.137h3.531l0.356-0.144c0.475-0.194 1.006-0.681 1.256-1.163l0.2-0.381v-7.125l-0.163-0.344c-0.244-0.512-0.619-0.9-1.106-1.137l-0.419-0.206-7.188-0.031zM26.212 19.288l0.163 0.169v3.087c0 2-0.025 3.131-0.063 3.212-0.163 0.3-0.219 0.306-3.512 0.306-2.337 0-3.119-0.019-3.238-0.081-0.087-0.044-0.206-0.175-0.262-0.294-0.1-0.2-0.113-0.481-0.113-3.113 0-3.056 0.012-3.219 0.294-3.381 0.075-0.044 1.163-0.063 3.337-0.069h3.225z"/>
<path d="M4.831 21.813c-0.294 0.175-0.406 0.387-0.406 0.756 0 0.344 0.106 0.544 0.412 0.769 0.169 0.131 0.237 0.131 4.825 0.15 2.994 0.012 4.737-0.006 4.888-0.050 0.369-0.094 0.588-0.369 0.625-0.769 0.031-0.406-0.088-0.681-0.381-0.856-0.194-0.119-0.35-0.125-4.981-0.125s-4.787 0.006-4.981 0.125z"/>
<path d="M4.844 26.181c-0.287 0.169-0.419 0.419-0.419 0.756 0 0.387 0.156 0.656 0.481 0.813 0.25 0.119 0.4 0.125 4.894 0.125 5.081 0 4.894 0.012 5.219-0.369 0.219-0.256 0.238-0.738 0.044-1.056-0.244-0.4-0.075-0.387-5.294-0.387-4.506 0-4.744 0.006-4.925 0.119z"/>
</svg>